<svg width="300" height="300" viewBox="0 0 300 300" fill="none" xmlns="http://www.w3.org/2000/svg">
<path d="M101.083 233.734V218.083C101.083 213.088 103.068 208.298 106.599 204.766C110.131 201.234 114.922 199.25 119.917 199.25H176.417C181.412 199.25 186.202 201.234 189.734 204.766C193.266 208.298 195.25 213.088 195.25 218.083V233.734M242.333 152.167C242.333 204.173 200.173 246.333 148.167 246.333C96.1598 246.333 54 204.173 54 152.167C54 100.16 96.1598 58 148.167 58C200.173 58 242.333 100.16 242.333 152.167ZM176.417 133.333C176.417 148.935 163.769 161.583 148.167 161.583C132.565 161.583 119.917 148.935 119.917 133.333C119.917 117.731 132.565 105.083 148.167 105.083C163.769 105.083 176.417 117.731 176.417 133.333Z" stroke="black" stroke-width="4" stroke-linecap="round" stroke-linejoin="round"/>
</svg>
